<?xml version="1.0" encoding="UTF-8"?>
<svg id="Camada_1" data-name="Camada 1" xmlns="http://www.w3.org/2000/svg" viewBox="0 0 1366 768">
  <defs>
    <style>
      .cls-1, .cls-2 {
        fill: #05967b;
      }

      .cls-3 {
        fill: #083b8a;
      }

      .cls-3, .cls-2 {
        fill-rule: evenodd;
      }
    </style>
  </defs>
  <path class="cls-3" d="M1142.03,274.52c-24.18,0-44.26,8.48-60.13,25.54-15.98,16.95-23.96,38.78-23.96,65.37s8.08,48.82,24.34,66.16c16.28,17.26,36.26,25.92,60.03,25.92s44.83-8.48,60.9-25.52c16.16-16.97,24.26-39.28,24.26-66.85s-8.1-48.82-24.26-65.57c-16.08-16.67-36.54-25.05-61.19-25.05M399.42,327.14c-15.73,17.13-27.26,37.96-33.37,60.8-5.36-20.12-4.14-41.44,3.51-60.8,8.77-18.8,18.31-31.96,28.54-39.36,16.46-11.98,35.47-17.93,57.19-17.93,20.08,0,37.62,5.26,52.83,15.87,15.08,10.62,25.23,24.46,30.39,41.42h-139.09ZM1223.96,90.95h77.75v430.29h-77.75v-33.03c-15.21,14.41-30.49,24.75-45.8,31.08-15.29,6.33-31.96,9.54-49.78,9.54-40.26,0-74.93-15.49-104.27-46.57-17.74-18.76-30.11-40.28-37.09-64.58v103.56h-77.77v-33.03c-15.19,14.41-30.49,24.75-45.78,31.08-15.31,6.33-31.98,9.54-49.8,9.54-40.24,0-74.93-15.49-104.27-46.57-9.2-9.72-16.97-20.22-23.27-31.45,19.57-19.53,39.04-42,58.41-67.44,2.88,18.86,10.56,34.92,23.04,48.22,16.26,17.26,36.24,25.92,60.01,25.92s44.83-8.48,60.9-25.52c16.18-16.97,24.26-39.28,24.26-66.85s-8.08-48.82-24.26-65.57c-16.08-16.67-36.54-25.05-61.19-25.05-119.45,0-143.7,268.14-372.31,254.31-48.54,0-88.09-15.29-118.58-45.98-6.8-6.8-12.83-14.01-18.11-21.58v59.97H64.29V90.95h77.75v352.53h165.62c-11.35-22.37-17.03-47.61-17.03-75.7,0-47.26,15.29-86.52,45.8-117.71,30.49-31.28,68.68-46.88,114.77-46.88,48.82,0,88.57,15.59,119.17,46.67,30.6,31.18,45.9,72.19,45.9,123.35l-.28,14.72h-249.93c3.59,22.11,13.24,39.75,28.83,52.9,12.99,10.88,29.01,17.22,47.95,19.04,39.55,7.04,76.7.91,111.41-18.37,115.6-56.15,116.75-186.98,220.78-224.96,42.55-15.53,89.83-7.94,134.23,28.34v-34.11h77.77v102.48c6.82-24.52,18.74-45.94,35.73-64.27,28.36-30.51,62.75-45.8,103.29-45.8,18.7,0,36.14,3.51,52.52,10.43,16.36,7,31.47,17.52,45.39,31.47V90.95Z"/>
  <path class="cls-2" d="M649.1,134.58c31.1,0,56.32,25.22,56.32,56.34s-25.22,56.33-56.32,56.33-56.35-25.22-56.35-56.33,25.23-56.34,56.35-56.34"/>
  <g>
    <path class="cls-1" d="M153.02,615.22l37.49.97c-2.47,19.4-9.19,34.4-20.15,44.98-10.97,10.58-25.27,15.88-42.91,15.88s-32.94-6.01-45.03-18.04c-12.08-12.02-18.13-26.94-18.13-44.76s6.16-33.02,18.48-45.25c12.32-12.23,27.5-18.35,45.55-18.35s32.58,6,44.45,17.99c8.23,8.29,14.05,19.84,17.46,34.66l-38.37,2.56c-4.29-13.17-12.44-19.76-24.43-19.76-7.64,0-13.95,2.65-18.92,7.94-4.97,5.29-7.45,12.03-7.45,20.2s2.44,14.39,7.32,19.54c4.88,5.15,11.05,7.72,18.52,7.72s13.63-2.26,18.12-6.79c4.5-4.53,7.16-11.02,7.98-19.49Z"/>
    <path class="cls-1" d="M300.63,550.66c17.05,0,31.68,6.2,43.88,18.61,12.2,12.41,18.3,27.25,18.3,44.54s-6.15,32.52-18.43,44.81c-12.29,12.29-27.23,18.43-44.81,18.43s-32.37-6.18-44.72-18.52c-12.35-12.35-18.52-27.25-18.52-44.72s6.22-32.58,18.65-44.81c12.44-12.23,27.65-18.35,45.64-18.35ZM299.57,586.11c-7.35,0-13.61,2.71-18.79,8.12-5.17,5.41-7.76,11.94-7.76,19.58s2.6,14.17,7.81,19.58c5.2,5.41,11.45,8.11,18.74,8.11s13.68-2.69,18.83-8.07c5.14-5.38,7.72-11.92,7.72-19.62s-2.57-14.24-7.72-19.63c-5.15-5.38-11.42-8.07-18.83-8.07Z"/>
    <path class="cls-1" d="M413.31,553.66h35.81v71.53c0,5.59.9,9.3,2.69,11.16,1.79,1.85,5.34,2.78,10.63,2.78h1.85v34.93h-9.53c-13.05,0-23.23-3.81-30.52-11.42-7.29-7.62-10.94-18.18-10.94-31.71v-77.26Z"/>
    <path class="cls-1" d="M510.03,553.66h35.81v71.53c0,5.59.9,9.3,2.69,11.16,1.79,1.85,5.34,2.78,10.63,2.78h1.85v34.93h-9.53c-13.05,0-23.23-3.81-30.52-11.42-7.29-7.62-10.94-18.18-10.94-31.71v-77.26Z"/>
    <path class="cls-1" d="M673.43,600.49v26.81h-23.37c-3.17,0-5.42.47-6.75,1.41-1.32.94-1.98,2.53-1.98,4.76,0,2.53.68,4.19,2.03,4.98,1.35.79,4.11,1.19,8.29,1.19h24.08v34.4h-28.14c-13.23,0-23.34-3.16-30.34-9.48-7-6.32-10.5-15.45-10.5-27.39v-47.19c0-11.52,3.31-20.46,9.92-26.81,6.62-6.35,15.92-9.53,27.92-9.53h31.13v34.57h-22.84c-6.17,0-9.26,2-9.26,6,0,2.35.73,3.98,2.21,4.89,1.47.91,4.09,1.37,7.85,1.37h19.76Z"/>
    <path class="cls-1" d="M813.81,615.22l37.48.97c-2.47,19.4-9.19,34.4-20.15,44.98-10.97,10.58-25.27,15.88-42.91,15.88s-32.94-6.01-45.03-18.04c-12.08-12.02-18.12-26.94-18.12-44.76s6.16-33.02,18.48-45.25c12.32-12.23,27.5-18.35,45.55-18.35s32.57,6,44.45,17.99c8.23,8.29,14.05,19.84,17.46,34.66l-38.37,2.56c-4.29-13.17-12.44-19.76-24.43-19.76-7.64,0-13.95,2.65-18.92,7.94-4.97,5.29-7.45,12.03-7.45,20.2s2.44,14.39,7.32,19.54c4.88,5.15,11.05,7.72,18.52,7.72s13.63-2.26,18.12-6.79c4.5-4.53,7.16-11.02,7.98-19.49Z"/>
    <path class="cls-1" d="M956.75,588.23v85.82h-35.81v-85.82h-27.43v-34.57h90.58v34.57h-27.34Z"/>
    <path class="cls-1" d="M1090.51,550.66c17.05,0,31.68,6.2,43.88,18.61,12.2,12.41,18.3,27.25,18.3,44.54s-6.15,32.52-18.43,44.81c-12.29,12.29-27.22,18.43-44.81,18.43s-32.37-6.18-44.72-18.52c-12.35-12.35-18.52-27.25-18.52-44.72s6.22-32.58,18.65-44.81c12.44-12.23,27.65-18.35,45.64-18.35ZM1089.45,586.11c-7.35,0-13.61,2.71-18.79,8.12-5.18,5.41-7.76,11.94-7.76,19.58s2.6,14.17,7.81,19.58c5.2,5.41,11.45,8.11,18.74,8.11s13.68-2.69,18.83-8.07,7.72-11.92,7.72-19.62-2.57-14.24-7.72-19.63c-5.15-5.38-11.42-8.07-18.83-8.07Z"/>
    <path class="cls-1" d="M1241.47,586.03v88.02h-35.81v-120.39h45.95c13.99,0,24.84,3.47,32.54,10.41,8.58,7.76,12.88,17.61,12.88,29.55s-5.32,22.43-15.96,30.78l20.64,49.66h-37.57l-17.38-38.81v-30.96h2.82c7.53,0,11.29-3.23,11.29-9.7,0-5.7-4.35-8.56-13.05-8.56h-6.35Z"/>
  </g>
</svg>