<?xml version="1.0" encoding="UTF-8"?>
<svg id="Camada_1" data-name="Camada 1" xmlns="http://www.w3.org/2000/svg" viewBox="0 0 1080 1080">
  <defs>
    <style>
      .cls-1, .cls-2 {
        fill: #fff;
      }

      .cls-2 {
        fill-rule: evenodd;
      }

      .cls-3 {
        fill: #083b8a;
      }
    </style>
  </defs>
  <circle class="cls-3" cx="540" cy="540" r="524.57"/>
  <g>
    <path class="cls-2" d="M841.55,468.08c-15.88,0-29.07,5.57-39.5,16.78-10.5,11.14-15.74,25.47-15.74,42.94s5.31,32.07,15.99,43.46c10.7,11.34,23.82,17.03,39.44,17.03s29.45-5.57,40.01-16.76c10.62-11.15,15.94-25.81,15.94-43.92s-5.32-32.07-15.94-43.08c-10.56-10.95-24.01-16.46-40.2-16.46M353.71,502.65c-10.34,11.26-17.91,24.94-21.93,39.94-3.52-13.22-2.72-27.22,2.31-39.94,5.76-12.35,12.03-20.99,18.75-25.86,10.82-7.87,23.3-11.78,37.57-11.78,13.19,0,24.71,3.45,34.7,10.43,9.91,6.97,16.58,16.07,19.96,27.21h-91.37ZM895.37,347.49h51.08v282.67h-51.08v-21.7c-9.99,9.47-20.03,16.26-30.09,20.42-10.04,4.16-20.99,6.27-32.7,6.27-26.45,0-49.23-10.18-68.5-30.59-11.66-12.32-19.78-26.46-24.37-42.42v68.03h-51.09v-21.7c-9.98,9.47-20.03,16.26-30.07,20.42-10.06,4.16-21.01,6.27-32.72,6.27-26.43,0-49.23-10.18-68.5-30.59-6.04-6.39-11.15-13.28-15.28-20.66,12.86-12.83,25.65-27.59,38.37-44.3,1.89,12.39,6.93,22.94,15.14,31.67,10.68,11.34,23.81,17.03,39.42,17.03s29.45-5.57,40.01-16.76c10.63-11.15,15.94-25.81,15.94-43.92s-5.31-32.07-15.94-43.08c-10.56-10.95-24.01-16.46-40.2-16.46-78.47,0-94.4,176.15-244.58,167.07-31.89,0-57.87-10.04-77.9-30.21-4.47-4.47-8.43-9.2-11.9-14.18v39.4h-166.88v-282.67h51.08v231.59h108.8c-7.46-14.7-11.19-31.27-11.19-49.73,0-31.05,10.04-56.84,30.09-77.33,20.03-20.55,45.12-30.79,75.39-30.79,32.07,0,58.19,10.24,78.28,30.66,20.1,20.49,30.16,47.42,30.16,81.03l-.19,9.67h-164.19c2.36,14.52,8.7,26.11,18.94,34.75,8.53,7.15,19.06,11.31,31.5,12.51,25.98,4.63,50.38.6,73.19-12.07,75.94-36.89,76.7-122.83,145.04-147.78,27.95-10.2,59.01-5.21,88.18,18.62v-22.41h51.09v67.32c4.48-16.11,12.31-30.18,23.47-42.22,18.63-20.05,41.22-30.09,67.86-30.09,12.28,0,23.74,2.31,34.5,6.86,10.75,4.6,20.67,11.51,29.82,20.67v-101.26Z"/>
    <path class="cls-2" d="M517.73,376.15c20.43,0,37,16.57,37,37.01s-16.57,37.01-37,37.01-37.02-16.57-37.02-37.01,16.58-37.01,37.02-37.01"/>
    <g>
      <path class="cls-1" d="M191.84,691.9l24.63.64c-1.62,12.75-6.04,22.6-13.24,29.55-7.21,6.95-16.6,10.43-28.19,10.43s-21.64-3.95-29.58-11.85c-7.94-7.9-11.91-17.7-11.91-29.41s4.05-21.69,12.14-29.72c8.09-8.03,18.07-12.05,29.93-12.05s21.4,3.94,29.2,11.82c5.41,5.45,9.23,13.04,11.47,22.77l-25.2,1.68c-2.82-8.65-8.17-12.98-16.05-12.98-5.02,0-9.16,1.74-12.43,5.21-3.26,3.48-4.9,7.9-4.9,13.27s1.6,9.45,4.81,12.83c3.21,3.38,7.26,5.07,12.17,5.07s8.95-1.49,11.91-4.46c2.96-2.97,4.7-7.24,5.24-12.81Z"/>
      <path class="cls-1" d="M288.81,649.48c11.2,0,20.81,4.08,28.83,12.23,8.01,8.15,12.02,17.9,12.02,29.26s-4.04,21.36-12.11,29.43c-8.07,8.07-17.89,12.11-29.43,12.11s-21.26-4.06-29.38-12.17c-8.11-8.11-12.17-17.9-12.17-29.38s4.08-21.4,12.25-29.43c8.17-8.03,18.16-12.05,29.98-12.05ZM288.11,672.78c-4.83,0-8.94,1.78-12.34,5.33-3.4,3.55-5.1,7.84-5.1,12.86s1.71,9.31,5.13,12.86c3.42,3.55,7.52,5.33,12.31,5.33s8.99-1.77,12.37-5.3c3.38-3.53,5.07-7.83,5.07-12.89s-1.69-9.36-5.07-12.89c-3.38-3.53-7.5-5.3-12.37-5.3Z"/>
      <path class="cls-1" d="M362.83,651.45h23.52v46.99c0,3.67.59,6.11,1.77,7.33,1.18,1.22,3.51,1.83,6.98,1.83h1.22v22.94h-6.26c-8.58,0-15.26-2.5-20.05-7.5-4.79-5-7.18-11.95-7.18-20.83v-50.76Z"/>
      <path class="cls-1" d="M426.37,651.45h23.52v46.99c0,3.67.59,6.11,1.77,7.33,1.18,1.22,3.51,1.83,6.98,1.83h1.22v22.94h-6.26c-8.58,0-15.26-2.5-20.05-7.5-4.79-5-7.18-11.95-7.18-20.83v-50.76Z"/>
      <path class="cls-1" d="M533.71,682.22v17.61h-15.35c-2.09,0-3.56.31-4.43.93-.87.62-1.3,1.66-1.3,3.13,0,1.66.44,2.75,1.33,3.27.89.52,2.7.78,5.45.78h15.82v22.6h-18.48c-8.69,0-15.34-2.08-19.93-6.23-4.6-4.15-6.89-10.15-6.89-17.99v-31c0-7.57,2.17-13.44,6.52-17.61,4.35-4.17,10.46-6.26,18.34-6.26h20.45v22.71h-15.01c-4.06,0-6.08,1.31-6.08,3.94,0,1.55.48,2.62,1.45,3.22.97.6,2.68.9,5.16.9h12.98Z"/>
      <path class="cls-1" d="M625.93,691.9l24.62.64c-1.62,12.75-6.03,22.6-13.24,29.55-7.2,6.95-16.6,10.43-28.19,10.43s-21.64-3.95-29.58-11.85c-7.94-7.9-11.91-17.7-11.91-29.41s4.05-21.69,12.14-29.72c8.09-8.03,18.07-12.05,29.93-12.05s21.4,3.94,29.2,11.82c5.41,5.45,9.23,13.04,11.47,22.77l-25.2,1.68c-2.82-8.65-8.17-12.98-16.05-12.98-5.02,0-9.16,1.74-12.43,5.21-3.26,3.48-4.9,7.9-4.9,13.27s1.6,9.45,4.81,12.83c3.21,3.38,7.26,5.07,12.17,5.07s8.95-1.49,11.91-4.46c2.96-2.97,4.7-7.24,5.24-12.81Z"/>
      <path class="cls-1" d="M719.83,674.17v56.38h-23.52v-56.38h-18.02v-22.71h59.51v22.71h-17.96Z"/>
      <path class="cls-1" d="M807.71,649.48c11.2,0,20.81,4.08,28.83,12.23,8.02,8.15,12.02,17.9,12.02,29.26s-4.04,21.36-12.11,29.43c-8.07,8.07-17.88,12.11-29.44,12.11s-21.26-4.06-29.38-12.17c-8.11-8.11-12.17-17.9-12.17-29.38s4.08-21.4,12.25-29.43c8.17-8.03,18.16-12.05,29.98-12.05ZM807.01,672.78c-4.83,0-8.94,1.78-12.34,5.33-3.4,3.55-5.1,7.84-5.1,12.86s1.71,9.31,5.13,12.86c3.42,3.55,7.52,5.33,12.31,5.33s8.99-1.77,12.37-5.3,5.07-7.83,5.07-12.89-1.69-9.36-5.07-12.89c-3.38-3.53-7.5-5.3-12.37-5.3Z"/>
      <path class="cls-1" d="M906.88,672.72v57.83h-23.52v-79.09h30.19c9.19,0,16.32,2.28,21.38,6.84,5.64,5.1,8.46,11.57,8.46,19.41s-3.5,14.74-10.49,20.22l13.56,32.62h-24.68l-11.42-25.49v-20.34h1.85c4.94,0,7.42-2.12,7.42-6.37,0-3.75-2.86-5.62-8.58-5.62h-4.17Z"/>
    </g>
  </g>
</svg>